<svg xmlns="http://www.w3.org/2000/svg" width="60" height="60" viewBox="0 0 60 60">
  <path id="cell" d="M60.412,10.147,46.955,2.439a2.985,2.985,0,0,0-3,0L31.97,9.3,19.982,2.439a2.985,2.985,0,0,0-3,0L3.528,10.147A3.013,3.013,0,0,0,2,12.767V28.182A3.013,3.013,0,0,0,3.528,30.8l11.988,6.835V51.305a3.013,3.013,0,0,0,1.528,2.619l13.487,7.708a2.985,2.985,0,0,0,3,0l13.427-7.708a3.013,3.013,0,0,0,1.528-2.619V37.636L60.472,30.8A3.013,3.013,0,0,0,62,28.182V12.767a3.013,3.013,0,0,0-1.588-2.619ZM7.994,26.436V14.392l10.49-6.022,10.49,6.022V26.436l-10.49,6.022ZM42.46,49.559,31.97,55.581l-10.49-6.022V37.516l10.49-6.022,10.49,6.022ZM55.946,26.436l-10.49,6.022-10.49-6.022V14.392l10.49-6.022,10.49,6.022Z" transform="translate(-2 -2.036)" fill="#707070"/>
</svg>
